<svg width="234" height="72" viewBox="0 0 234 72" fill="none" xmlns="http://www.w3.org/2000/svg">
<path d="M140.44 28.6055H144.187V31.9337H146.867V34.5842H144.187V40.0417C144.187 41.1959 144.549 41.4229 145.79 41.4229H146.857V44.1181H144.472C141.475 44.1181 140.43 43.5522 140.43 40.6971V34.5842H138.507V31.9337H140.43L140.44 28.6055Z" fill="#050B0B"/>
<path d="M160.682 37.9803C160.682 42.3987 157.592 44.4129 154.211 44.4129C150.829 44.4129 147.732 42.3955 147.732 37.9803C147.732 33.565 150.822 31.5859 154.204 31.5859C157.586 31.5859 160.682 33.565 160.682 37.9803ZM151.553 37.9803C151.553 40.538 152.688 41.5131 154.211 41.5131C155.733 41.5131 156.868 40.554 156.868 37.9803C156.868 35.4065 155.685 34.4634 154.211 34.4634C152.736 34.4634 151.547 35.4001 151.547 37.9803H151.553Z" fill="#050B0B"/>
<path d="M174.748 27.6875V44.1049H171.004V42.4744C170.209 43.8108 168.597 44.3926 167.257 44.3926C164.125 44.3926 161.875 41.9916 161.875 37.9983C161.875 34.0051 164.119 31.6328 167.257 31.6328C168.597 31.6328 170.209 32.2211 171.004 33.5511V27.6875H174.748ZM165.773 38.0143C165.773 40.2779 167.001 41.4992 168.501 41.4992C170.001 41.4992 171.2 40.5401 171.2 38.0143C171.2 35.4886 169.975 34.5486 168.501 34.5486C167.026 34.5486 165.757 35.7603 165.757 38.0271L165.773 38.0143Z" fill="#050B0B"/>
<path d="M189.599 37.9803C189.599 42.3987 186.509 44.4129 183.127 44.4129C179.745 44.4129 176.655 42.3987 176.655 37.9803C176.655 33.5618 179.745 31.5859 183.127 31.5859C186.509 31.5859 189.599 33.565 189.599 37.9803ZM180.47 37.9803C180.47 40.538 181.604 41.5131 183.127 41.5131C184.65 41.5131 185.784 40.554 185.784 37.9803C185.784 35.4065 184.602 34.4634 183.127 34.4634C181.653 34.4634 180.47 35.4001 180.47 37.9803Z" fill="#050B0B"/>
<path d="M191.832 31.1649C191.832 28.2875 193.114 27.6992 196.374 27.6992H198.282V30.3241H197.224C195.884 30.3241 195.589 30.3944 195.589 31.3216V31.9323H198.291V34.5827H195.589V44.1166H191.832V34.5827H190.172V31.9323H191.829L191.832 31.1649Z" fill="#050B0B"/>
<path d="M203.369 33.5863C204.161 32.2499 205.773 31.668 207.113 31.668C210.248 31.668 212.495 34.0467 212.495 38.0335C212.495 42.0204 210.251 44.4278 207.113 44.4278C205.773 44.4278 204.161 43.8395 203.369 42.5095V48.1046H199.622V31.9333H203.369V33.5863ZM203.187 38.0271C203.187 40.5401 204.411 41.512 205.889 41.512C207.366 41.512 208.613 40.2907 208.613 38.0271C208.613 35.7635 207.386 34.5614 205.879 34.5614C204.373 34.5614 203.187 35.511 203.187 38.0271Z" fill="#050B0B"/>
<path d="M234 72H116.185V0H234V72ZM117.816 70.3726H232.369V1.63375H117.816V70.3726Z" fill="#050B0B"/>
<path d="M96.1115 27.6875H96.5026C98.0574 27.6875 99.5487 28.3036 100.648 29.4002C101.748 30.4969 102.365 31.9842 102.365 33.5351C102.365 35.086 101.748 36.5733 100.648 37.67C99.5487 38.7666 98.0574 39.3827 96.5026 39.3827H96.1115C95.3417 39.3827 94.5795 39.2314 93.8684 38.9375C93.1573 38.6436 92.5112 38.2128 91.967 37.6698C91.4229 37.1267 90.9913 36.4821 90.6971 35.7726C90.4028 35.0632 90.2515 34.3029 90.252 33.5351C90.2515 32.7673 90.4028 32.007 90.6971 31.2976C90.9913 30.5881 91.4229 29.9435 91.967 29.4004C92.5112 28.8574 93.1573 28.4266 93.8684 28.1327C94.5795 27.8388 95.3417 27.6875 96.1115 27.6875ZM96.1115 45.9529H96.5026C98.0574 45.9529 99.5487 46.5689 100.648 47.6656C101.748 48.7622 102.365 50.2496 102.365 51.8005C102.365 52.5682 102.214 53.3285 101.919 54.0378C101.624 54.747 101.192 55.3915 100.648 55.9342C100.103 56.477 99.4572 56.9074 98.7459 57.2009C98.0346 57.4944 97.2723 57.6453 96.5026 57.6449H96.1115C95.3419 57.6453 94.5797 57.4944 93.8686 57.2008C93.1575 56.9073 92.5114 56.4768 91.9672 55.934C91.423 55.3912 90.9914 54.7468 90.6971 54.0375C90.4028 53.3283 90.2515 52.5681 90.252 51.8005C90.2515 51.0327 90.4028 50.2724 90.6971 49.5629C90.9913 48.8535 91.4229 48.2088 91.967 47.6658C92.5112 47.1227 93.1573 46.692 93.8684 46.398C94.5795 46.1041 95.3417 45.9529 96.1115 45.9529Z" fill="#050B0B"/>
<path d="M50.3575 13.1676V22.2923H28.2176V30.0198H49.0145V39.1989H28.2176V57.2692H17.7871V13.1484L50.3575 13.1676Z" fill="#050B0B"/>
<path d="M86.9826 24.4185C86.9826 35.3687 76.6131 39.7488 65.3299 39.7488H60.6308L57.7042 53.6213C57.5215 54.3502 57.826 54.9609 59.1082 55.0216L63.9163 55.2039L63.49 57.2724H46.1807L46.6102 55.2039L50.024 54.9609C51.3062 54.9002 51.8543 54.5932 52.0979 53.5605L59.8999 16.8732C60.0826 15.8565 59.7108 15.5368 58.4286 15.476L55.0148 15.233L55.4412 13.1645C55.4412 13.1645 67.8238 13.043 70.7503 13.043C80.3955 13.043 86.9826 16.3265 86.9826 24.4185ZM65.7563 15.9012L61.243 36.8906H66.6089C74.661 36.8906 80.9436 32.7534 80.9436 24.54C80.9436 18.9417 77.283 15.9076 71.0613 15.9076L65.7563 15.9012Z" fill="#050B0B"/>
<path d="M117.816 72H0V0H117.816V72ZM1.63157 70.3726H116.184V1.63375H1.63157V70.3726Z" fill="#050B0B"/>
</svg>
